# xmcd
#
# Track frame offsets: 
#        150
#        10975
#        30493
#        43718
#        56908
#        79855
#        97028
#        112850
#        130573
#        142878
#        154788
#        166993
#        188535
#        202188
#        221170
#        231635
#        240910
#        254350
#        267560
#        283045
#        296125
#        309648
#        324720
#        336263
#
# Disc length: 4682 seconds
#
# Revision: 1
# Processed by: cddbd v1.5.2PL0 Copyright (c) Steve Scherf et al.
# Submitted via: ExactAudioCopy v0.99pb4
#
DISCID=69124818
DTITLE=Fleetwood Mac - Mr Wonderful and Peter Green's Fleetwood Mac
DYEAR=1968
DGENRE=
TTITLE0=Stop Messin' Round
TTITLE1=I've Lost My Baby
TTITLE2=Rollin' Man
TTITLE3=Dust My Broom
TTITLE4=Love That Burns
TTITLE5=Doctor Brown
TTITLE6=Need Your Love Tonight
TTITLE7=If You Be My Baby
TTITLE8=Evenin' Boogie
TTITLE9=Lazy Poker Blues
TTITLE10=Coming Home
TTITLE11=Trying So Hard To Forget
TTITLE12=My Heart Beat Like A Hammer
TTITLE13=Merry Go Round
TTITLE14=Long Grey Mare
TTITLE15=Hellbound On My Trail
TTITLE16=Shake Your Moneymaker
TTITLE17=Looking For Somebody
TTITLE18=No Place To Go
TTITLE19=My Baby's Good To Me
TTITLE20=I Loved Another Woman
TTITLE21=Cold Black Night
TTITLE22=The World Keep On Turning
TTITLE23=Got To Move
EXTD=
EXTT0=
EXTT1=
EXTT2=
EXTT3=
EXTT4=
EXTT5=
EXTT6=
EXTT7=
EXTT8=
EXTT9=
EXTT10=
EXTT11=
EXTT12=
EXTT13=
EXTT14=
EXTT15=
EXTT16=
EXTT17=
EXTT18=
EXTT19=
EXTT20=
EXTT21=
EXTT22=
EXTT23=
PLAYORDER=
